<svg xmlns="http://www.w3.org/2000/svg" xmlns:xlink="http://www.w3.org/1999/xlink" xmlns:lucid="lucid" width="1580" height="1280"><g transform="translate(-40 -80)" lucid:page-tab-id="fFv0-g8SvVyu"><path d="M180 520c0 22.1-17.9 40-40 40s-40-17.9-40-40 17.9-40 40-40 40 17.9 40 40z" stroke="#666" stroke-width="2" fill="#fff"/><use xlink:href="#a" transform="matrix(1,0,0,1,105,485) translate(7.574999999999999 38.6)"/><path d="M414 460c8.84 0 16 26.86 16 60s-7.16 60-16 60H286c-8.84 0-16-26.86-16-60s7.16-60 16-60z" stroke="#666" stroke-width="2" fill="#fff"/><path d="M414 580c-8.84 0-16-26.86-16-60s7.16-60 16-60" stroke="#666" stroke-width="2" fill="none"/><use xlink:href="#b" transform="matrix(1,0,0,1,275,465) translate(6.124999999999993 58.6)"/><path d="M181 520h69.5" stroke="#999" stroke-width="2" fill="none"/><path d="M181 521h-1.06l.06-1-.04-1H181z" fill="#999"/><path d="M265.76 520l-14.26 4.64v-9.28z" stroke="#999" stroke-width="2" fill="#999"/><use xlink:href="#c" transform="matrix(1,0,0,1,187.06174899978137,524.0000000000001) translate(0.004999999999999005 14.4)"/><path d="M846 463c2.2-1.66 5.8-1.66 8 0l72 54c2.2 1.66 2.2 4.34 0 6l-72 54c-2.2 1.66-5.8 1.66-8 0l-72-54c-2.2-1.66-2.2-4.34 0-6z" stroke="#666" stroke-width="2" fill="#fff"/><use xlink:href="#d" transform="matrix(1,0,0,1,775.0000000000002,465) translate(15.099999999999994 47.8)"/><use xlink:href="#e" transform="matrix(1,0,0,1,775.0000000000002,465) translate(48.05 47.8)"/><use xlink:href="#f" transform="matrix(1,0,0,1,775.0000000000002,465) translate(94 47.8)"/><use xlink:href="#g" transform="matrix(1,0,0,1,775.0000000000002,465) translate(48.05 69.4)"/><path d="M1020 465c0-2.76 2.24-5 5-5h150c2.76 0 5 2.24 5 5v110c0 2.76-2.24 5-5 5h-150c-2.76 0-5-2.24-5-5z" stroke="#666" stroke-width="2" fill="#fff"/><use xlink:href="#h" transform="matrix(1,0,0,1,1025,465) translate(15.549999999999997 26.19999999999999)"/><use xlink:href="#i" transform="matrix(1,0,0,1,1025,465) translate(47.55 26.19999999999999)"/><use xlink:href="#j" transform="matrix(1,0,0,1,1025,465) translate(86.55 26.19999999999999)"/><use xlink:href="#k" transform="matrix(1,0,0,1,1025,465) translate(32 47.79999999999999)"/><use xlink:href="#l" transform="matrix(1,0,0,1,1025,465) translate(72 47.79999999999999)"/><use xlink:href="#m" transform="matrix(1,0,0,1,1025,465) translate(11.174999999999997 69.39999999999999)"/><use xlink:href="#n" transform="matrix(1,0,0,1,1025,465) translate(56.025 91)"/><path d="M959.06 521h-30.6v-2h30.6zm41.44 0h-12.1v-2h12.1z" fill="#999"/><path d="M928.47 521h-1v-2h1zM1015.76 520l-14.26 4.64v-9.28z" fill="#999"/><path d="M1019 520l-18.5 6v-12zm-16.5 3.26l10.03-3.26-10.03-3.26z" fill="#999"/><use xlink:href="#o" transform="matrix(1,0,0,1,959.0613795000002,509.2) translate(0.005000000000000782 14.4)"/><path d="M520 465c0-2.76 2.24-5 5-5h150c2.76 0 5 2.24 5 5v110c0 2.76-2.24 5-5 5H525c-2.76 0-5-2.24-5-5z" stroke="#666" stroke-width="2" fill="#fff"/><use xlink:href="#p" transform="matrix(1,0,0,1,525,465) translate(28.549999999999997 47.8)"/><use xlink:href="#j" transform="matrix(1,0,0,1,525,465) translate(73.55 47.8)"/><use xlink:href="#q" transform="matrix(1,0,0,1,525,465) translate(37.525 69.4)"/><path d="M431 520h69.5" stroke="#999" stroke-width="2" fill="none"/><path d="M431 521h-1.04l.04-1-.03-1H431z" fill="#999"/><path d="M515.76 520l-14.26 4.64v-9.28z" stroke="#999" stroke-width="2" fill="#999"/><path d="M180 939.25c0 22.1-17.9 40-40 40s-40-17.9-40-40 17.9-40 40-40 40 17.9 40 40z" stroke="#666" stroke-width="2" fill="#fff"/><use xlink:href="#r" transform="matrix(1,0,0,1,105,904.2532341644542) translate(-25.425000000000004 38.6)"/><path d="M346 1123c2.2-1.66 5.8-1.66 8 0l72 54c2.2 1.66 2.2 4.34 0 6l-72 54c-2.2 1.66-5.8 1.66-8 0l-72-54c-2.2-1.66-2.2-4.34 0-6z" stroke="#666" stroke-width="2" fill="#fff"/><use xlink:href="#s" transform="matrix(1,0,0,1,275,1125) translate(22.703703703703695 38.55555555555555)"/><use xlink:href="#t" transform="matrix(1,0,0,1,275,1125) translate(53.2716049382716 38.55555555555555)"/><use xlink:href="#u" transform="matrix(1,0,0,1,275,1125) translate(98.65432098765433 38.55555555555555)"/><use xlink:href="#v" transform="matrix(1,0,0,1,275,1125) translate(19.740740740740733 58.55555555555555)"/><use xlink:href="#w" transform="matrix(1,0,0,1,275,1125) translate(80.87654320987653 58.55555555555555)"/><use xlink:href="#x" transform="matrix(1,0,0,1,275,1125) translate(105.5679012345679 58.55555555555555)"/><use xlink:href="#y" transform="matrix(1,0,0,1,275,1125) translate(45.37037037037037 78.55555555555557)"/><path d="M520 1125c0-2.76 2.24-5 5-5h150c2.76 0 5 2.24 5 5v110c0 2.76-2.24 5-5 5H525c-2.76 0-5-2.24-5-5z" stroke="#666" stroke-width="2" fill="#fff"/><use xlink:href="#p" transform="matrix(1,0,0,1,525,1125) translate(26.575000000000003 37)"/><use xlink:href="#z" transform="matrix(1,0,0,1,525,1125) translate(71.575 37)"/><use xlink:href="#A" transform="matrix(1,0,0,1,525,1125) translate(16.074999999999996 58.6)"/><use xlink:href="#B" transform="matrix(1,0,0,1,525,1125) translate(103.92500000000001 58.6)"/><use xlink:href="#C" transform="matrix(1,0,0,1,525,1125) translate(8.599999999999994 80.20000000000002)"/><use xlink:href="#D" transform="matrix(1,0,0,1,525,1125) translate(72.55 80.20000000000002)"/><use xlink:href="#E" transform="matrix(1,0,0,1,525,1125) translate(92.55 80.20000000000002)"/><path d="M459.06 1181h-30.6v-2h30.6zm41.44 0h-12.1v-2h12.1z" fill="#999"/><path d="M428.47 1181h-1v-2h1zM515.76 1180l-14.26 4.64v-9.28z" fill="#999"/><path d="M519 1180l-18.5 6v-12zm-16.5 3.26l10.03-3.26-10.03-3.26z" fill="#999"/><use xlink:href="#o" transform="matrix(1,0,0,1,459.0613795,1169.2) translate(0.005000000000000782 14.4)"/><path d="M1330 1241v35c0 2.76-2.24 5-5 5H355c-2.76 0-5-2.24-5-5v-18.24" stroke="#999" stroke-width="2" fill="none"/><path d="M1330 1240l1-.03v1.03h-2v-1.04z" fill="#999"/><path d="M350 1242.5l4.64 14.26h-9.28z" stroke="#999" stroke-width="2" fill="#999"/><path d="M1560 1180c0 22.1-17.9 40-40 40s-40-17.9-40-40 17.9-40 40-40 40 17.9 40 40z" stroke="#666" stroke-width="2" fill="#fff"/><use xlink:href="#F" transform="matrix(1,0,0,1,1485,1145) translate(15 38.6)"/><path d="M1100 581v35c0 2.76-2.24 5-5 5H855c-2.76 0-5-2.24-5-5v-18.24" stroke="#999" stroke-width="2" fill="none"/><path d="M1101 581h-2v-1h2z" fill="#999"/><path d="M850 582.5l4.64 14.26h-9.28z" stroke="#999" stroke-width="2" fill="#999"/><path d="M681 520h72.03" stroke="#999" stroke-width="2" fill="none"/><path d="M681 521h-1v-2h1z" fill="#999"/><path d="M768.3 520l-14.27 4.64v-9.28z" stroke="#999" stroke-width="2" fill="#999"/><path d="M1560 520c0 22.1-17.9 40-40 40s-40-17.9-40-40 17.9-40 40-40 40 17.9 40 40z" stroke="#666" stroke-width="2" fill="#fff"/><use xlink:href="#F" transform="matrix(1,0,0,1,1485,485) translate(15 38.6)"/><path d="M1182.65 421.75H855.08l-1.26.2-2 1.46-.82 2.5v34.85h-2V425.6l1.1-3.42 2.92-2.13 1.9-.3h327.73zm335.92-.9l2.12 2.92.3 1.9v34.83h-2v-34.67l-.2-1.27-1.46-2-2.5-.8H1205.6v-2h309.56z" fill="#999"/><path d="M851 461.9l-1-.14-1 .14v-1.15h2zM1520 475.76l-4.64-14.26h9.28z" fill="#999"/><path d="M1520 479l-6-18.5h12zm-3.26-16.5l3.26 10.03 3.26-10.03z" fill="#999"/><use xlink:href="#G" transform="matrix(1,0,0,1,1182.6513052223831,409.94676583554576) translate(0.005000000000000782 14.4)"/><path d="M932.65 1081.75H355.08l-1.26.2-2 1.46-.82 2.5v34.85h-2v-35.16l1.1-3.42 2.92-2.13 1.9-.3h577.73zm585.92-.9l2.12 2.92.3 1.9v34.83h-2v-34.67l-.2-1.27-1.46-2-2.5-.8H955.6v-2h559.56z" fill="#999"/><path d="M351 1121.9l-1-.14-1 .14v-1.15h2zM1520 1135.76l-4.64-14.26h9.28z" fill="#999"/><path d="M1520 1139l-6-18.5h12zm-3.26-16.5l3.26 10.03 3.26-10.03z" fill="#999"/><use xlink:href="#G" transform="matrix(1,0,0,1,932.6513052223829,1069.9467658355459) translate(0.005000000000000782 14.4)"/><path d="M1390 1228c0 6.63-26.86 12-60 12s-60-5.37-60-12v-96c0-6.63 26.86-12 60-12s60 5.37 60 12z" stroke="#666" stroke-width="2" fill="#fff"/><path d="M1390 1132c0 6.63-26.86 12-60 12s-60-5.37-60-12" stroke="#666" stroke-width="2" fill="none"/><use xlink:href="#H" transform="matrix(1,0,0,1,1275,1149) translate(5.549999999999997 35.8)"/><use xlink:href="#I" transform="matrix(1,0,0,1,1275,1149) translate(3.124999999999993 57.4)"/><path d="M770 1125c0-2.76 2.24-5 5-5h134c2.76 0 5 2.24 5 5v97c-24.05-17.03-39.02-17.03-48.1-17.03-14.4 0-33.55 17.03-47.95 17.03-8.93 0-24.05 0-47.95-17.03z" stroke="#666" stroke-width="2" fill="#fff"/><path d="M778 1134c0-2.76 2.24-5 5-5h134c2.76 0 5 2.24 5 5v97c-24.05-17.03-39.02-17.03-48.1-17.03-14.4 0-33.55 17.03-47.95 17.03-8.93 0-24.05 0-47.95-17.03z" stroke="#666" stroke-width="2" fill="#fff"/><path d="M786 1143c0-2.76 2.24-5 5-5h134c2.76 0 5 2.24 5 5v97c-24.05-17.03-39.02-17.03-48.1-17.03-14.4 0-33.55 17.03-47.95 17.03-8.93 0-24.05 0-47.95-17.03z" stroke="#666" stroke-width="2" fill="#fff"/><use xlink:href="#J" transform="matrix(1,0,0,1,791.0000000000002,1143) translate(36.575 30.299999999999997)"/><use xlink:href="#K" transform="matrix(1,0,0,1,791.0000000000002,1143) translate(19.625 51.9)"/><path d="M681 1180h69.5" stroke="#999" stroke-width="2" fill="none"/><path d="M681 1181h-1v-2h1z" fill="#999"/><path d="M765.76 1180l-14.26 4.64v-9.28z" stroke="#999" stroke-width="2" fill="#999"/><path d="M1020 1125c0-2.76 2.24-5 5-5h150c2.76 0 5 2.24 5 5v110c0 2.76-2.24 5-5 5h-150c-2.76 0-5-2.24-5-5z" stroke="#666" stroke-width="2" fill="#fff"/><use xlink:href="#L" transform="matrix(1,0,0,1,1025,1125) translate(17.549999999999997 47.8)"/><use xlink:href="#M" transform="matrix(1,0,0,1,1025,1125) translate(54.55 47.8)"/><use xlink:href="#N" transform="matrix(1,0,0,1,1025,1125) translate(77.44999999999999 47.8)"/><use xlink:href="#O" transform="matrix(1,0,0,1,1025,1125) translate(117.45 47.8)"/><use xlink:href="#P" transform="matrix(1,0,0,1,1025,1125) translate(33.025 69.4)"/><path d="M931 1180h69.5" stroke="#999" stroke-width="2" fill="none"/><path d="M931 1181h-1v-2h1z" fill="#999"/><path d="M1015.76 1180l-14.26 4.64v-9.28z" stroke="#999" stroke-width="2" fill="#999"/><path d="M1181 1180h69.5" stroke="#999" stroke-width="2" fill="none"/><path d="M1181 1181h-1v-2h1z" fill="#999"/><path d="M1265.76 1180l-14.26 4.64v-9.28z" stroke="#999" stroke-width="2" fill="#999"/><path d="M180 240c0 22.1-17.9 40-40 40s-40-17.9-40-40 17.9-40 40-40 40 17.9 40 40z" stroke="#666" stroke-width="2" fill="#fff"/><use xlink:href="#Q" transform="matrix(1,0,0,1,105,205) translate(14.075 38.6)"/><path d="M660 288c0 6.63-26.86 12-60 12s-60-5.37-60-12v-96c0-6.63 26.86-12 60-12s60 5.37 60 12z" stroke="#666" stroke-width="2" fill="#fff"/><path d="M660 192c0 6.63-26.86 12-60 12s-60-5.37-60-12" stroke="#666" stroke-width="2" fill="none"/><use xlink:href="#H" transform="matrix(1,0,0,1,545,209) translate(5.549999999999997 35.8)"/><use xlink:href="#I" transform="matrix(1,0,0,1,545,209) translate(3.124999999999993 57.4)"/><path d="M270 185c0-2.76 2.24-5 5-5h150c2.76 0 5 2.24 5 5v110c0 2.76-2.24 5-5 5H275c-2.76 0-5-2.24-5-5z" stroke="#666" stroke-width="2" fill="#fff"/><use xlink:href="#R" transform="matrix(1,0,0,1,275,185) translate(18.099999999999994 47.8)"/><use xlink:href="#S" transform="matrix(1,0,0,1,275,185) translate(52.099999999999994 47.8)"/><use xlink:href="#T" transform="matrix(1,0,0,1,275,185) translate(67.1 47.8)"/><use xlink:href="#U" transform="matrix(1,0,0,1,275,185) translate(94 47.8)"/><use xlink:href="#V" transform="matrix(1,0,0,1,275,185) translate(114 47.8)"/><use xlink:href="#W" transform="matrix(1,0,0,1,275,185) translate(56.575 69.4)"/><path d="M181 240h69.5" stroke="#999" stroke-width="2" fill="none"/><path d="M181 241h-1.06l.06-1-.04-1H181z" fill="#999"/><path d="M265.76 240l-14.26 4.64v-9.28z" stroke="#999" stroke-width="2" fill="#999"/><path d="M431 240h89.5" stroke="#999" stroke-width="2" fill="none"/><path d="M431 241h-1v-2h1z" fill="#999"/><path d="M535.76 240l-14.26 4.64v-9.28z" stroke="#999" stroke-width="2" fill="#999"/><path d="M890 240c0 22.1-17.9 40-40 40s-40-17.9-40-40 17.9-40 40-40 40 17.9 40 40z" stroke="#666" stroke-width="2" fill="#fff"/><use xlink:href="#F" transform="matrix(1,0,0,1,815.0000000000002,205) translate(15 38.6)"/><path d="M661 240h129.5" stroke="#999" stroke-width="2" fill="none"/><path d="M661 241h-1v-2h1z" fill="#999"/><path d="M805.76 240l-14.26 4.64v-9.28z" stroke="#999" stroke-width="2" fill="#999"/><path d="M60 805c0-2.76 2.24-5 5-5h1530c2.76 0 5 2.24 5 5v530c0 2.76-2.24 5-5 5H65c-2.76 0-5-2.24-5-5z" stroke="#666" stroke-width="2" fill="none"/><path d="M60 805c0-2.76 2.24-5 5-5h230c2.76 0 5 2.24 5 5v50c0 2.76-2.24 5-5 5H65c-2.76 0-5-2.24-5-5z" stroke="#000" stroke-opacity="0" stroke-width="2" fill="#fff" fill-opacity="0"/><g><use xlink:href="#X" transform="matrix(1,0,0,1,65,805) translate(83.625 28.6)"/></g><path d="M60 105c0-2.76 2.24-5 5-5h1530c2.76 0 5 2.24 5 5v630c0 2.76-2.24 5-5 5H65c-2.76 0-5-2.24-5-5z" stroke="#666" stroke-width="2" fill="none"/><path d="M60 105c0-2.76 2.24-5 5-5h230c2.76 0 5 2.24 5 5v50c0 2.76-2.24 5-5 5H65c-2.76 0-5-2.24-5-5z" stroke="#000" stroke-opacity="0" stroke-width="2" fill="#fff" fill-opacity="0"/><g><use xlink:href="#Y" transform="matrix(1,0,0,1,65,105) translate(75.725 28.6)"/></g><path d="M346 882.25c2.2-1.65 5.8-1.65 8 0l72 54c2.2 1.66 2.2 4.35 0 6l-72 54c-2.2 1.66-5.8 1.66-8 0l-72-54c-2.2-1.65-2.2-4.34 0-6z" stroke="#666" stroke-width="2" fill="#fff"/><g><use xlink:href="#Z" transform="matrix(1,0,0,1,275,884.2532341644401) translate(0.5250000000000057 47.8)"/><use xlink:href="#aa" transform="matrix(1,0,0,1,275,884.2532341644401) translate(34.525000000000006 47.8)"/><use xlink:href="#ab" transform="matrix(1,0,0,1,275,884.2532341644401) translate(64.525 47.8)"/><use xlink:href="#ac" transform="matrix(1,0,0,1,275,884.2532341644401) translate(114.47500000000001 47.8)"/><use xlink:href="#ad" transform="matrix(1,0,0,1,275,884.2532341644401) translate(7.549999999999997 69.4)"/><use xlink:href="#ae" transform="matrix(1,0,0,1,275,884.2532341644401) translate(52.55 69.4)"/></g><path d="M232.53 1174.84l.8 2.5 2 1.46 1.28.2h16.43v2h-16.58l-1.9-.3-2.9-2.13-1.12-3.4V1060.8h2zM351 1033.67l-1.1 3.4-2.92 2.13-1.9.3H246.2v-.28h-13.68l.44-.6 3.4-1.1h108.56l1.26-.22 2-1.46.82-2.5v-34.83h2zM351 998.5h-2v-1.15l1 .15 1-.15zM268.3 1180l-14.27 4.64v-9.28z" fill="#999"/><path d="M271.53 1180l-18.5 6v-12zm-16.5 3.26l10.03-3.26-10.03-3.26z" fill="#999"/><g><use xlink:href="#o" transform="matrix(1,0,0,1,216.852241,1039.2168546644473) translate(0.005000000000000782 14.4)"/></g><path d="M520 884.25c0-2.76 2.24-5 5-5h150c2.76 0 5 2.24 5 5v110c0 2.76-2.24 5-5 5H525c-2.76 0-5-2.24-5-5z" stroke="#666" stroke-width="2" fill="#fff"/><g><use xlink:href="#p" transform="matrix(1,0,0,1,525,884.2532341644542) translate(25.549999999999997 26.19999999999999)"/><use xlink:href="#af" transform="matrix(1,0,0,1,525,884.2532341644542) translate(70.55 26.19999999999999)"/><use xlink:href="#ag" transform="matrix(1,0,0,1,525,884.2532341644542) translate(37.525 47.79999999999999)"/><use xlink:href="#ah" transform="matrix(1,0,0,1,525,884.2532341644542) translate(21.049999999999997 69.39999999999999)"/><use xlink:href="#ai" transform="matrix(1,0,0,1,525,884.2532341644542) translate(56.05 69.39999999999999)"/><use xlink:href="#O" transform="matrix(1,0,0,1,525,884.2532341644542) translate(113.95 69.39999999999999)"/><use xlink:href="#aj" transform="matrix(1,0,0,1,525,884.2532341644542) translate(55.55 91)"/></g><path d="M910 987.25c0 6.63-26.86 12-60 12s-60-5.37-60-12v-96c0-6.62 26.86-12 60-12s60 5.38 60 12z" stroke="#666" stroke-width="2" fill="#fff"/><path d="M910 891.25c0 6.63-26.86 12-60 12s-60-5.37-60-12" stroke="#666" stroke-width="2" fill="none"/><g><use xlink:href="#ak" transform="matrix(1,0,0,1,795.0000000000002,908.2532341644401) translate(35.55 46.6)"/></g><path d="M462.26 940.25h-33.8v-2h33.8zm38.24 0h-15.3v-2h15.3z" fill="#999"/><path d="M428.47 940.25h-1v-2h1zM515.76 939.25l-14.26 4.64v-9.28z" fill="#999"/><path d="M519 939.25l-18.5 6v-12zm-16.5 3.26l10.03-3.25L502.5 936z" fill="#999"/><g><use xlink:href="#G" transform="matrix(1,0,0,1,462.2613795,928.4532341644401) translate(0.005000000000000782 14.4)"/></g><path d="M681 939.25h89.5" stroke="#999" stroke-width="2" fill="none"/><path d="M681 940.25h-1v-2h1z" fill="#999"/><path d="M785.76 939.25l-14.26 4.64v-9.28z" stroke="#999" stroke-width="2" fill="#999"/><path d="M232.53 1174.84l.8 2.5 2 1.46 1.28.2h16.43v2h-16.58l-1.9-.3-2.9-2.13-1.12-3.4V1060.8h2zM851 1035.4l-1.1 3.42-2.92 2.13-1.9.3H246.2v-2h598.72l1.26-.2 2-1.46.82-2.5v-34.85h2z" fill="#999"/><path d="M850 999.25l1-.03v1.03h-2v-1.04zM268.3 1180l-14.27 4.64v-9.28z" fill="#999"/><path d="M271.53 1180l-18.5 6v-12zm-16.5 3.26l10.03-3.26-10.03-3.26z" fill="#999"/><path d="M181 939.25h72.03" stroke="#999" stroke-width="2" fill="none"/><path d="M181 940.25h-1.06l.06-1-.04-1H181z" fill="#999"/><path d="M268.3 939.25l-14.27 4.64v-9.28z" stroke="#999" stroke-width="2" fill="#999"/><defs><path fill="#333" d="M0 4l72-265h28L28 4H0" id="al"/><path fill="#333" d="M24-231v-30h32v30H24zM24 0v-190h32V0H24" id="am"/><path fill="#333" d="M210-169c-67 3-38 105-44 169h-31v-121c0-29-5-50-35-48C34-165 62-65 56 0H25l-1-190h30c1 10-1 24 2 32 10-44 99-50 107 0 11-21 27-35 58-36 85-2 47 119 55 194h-31v-121c0-29-5-49-35-48" id="an"/><path fill="#333" d="M115-194c55 1 70 41 70 98S169 2 115 4C84 4 66-9 55-30l1 105H24l-1-265h31l2 30c10-21 28-34 59-34zm-8 174c40 0 45-34 45-75s-6-73-45-74c-42 0-51 32-51 76 0 43 10 73 51 73" id="ao"/><path fill="#333" d="M100-194c62-1 85 37 85 99 1 63-27 99-86 99S16-35 15-95c0-66 28-99 85-99zM99-20c44 1 53-31 53-75 0-43-8-75-51-75s-53 32-53 75 10 74 51 75" id="ap"/><path fill="#333" d="M114-163C36-179 61-72 57 0H25l-1-190h30c1 12-1 29 2 39 6-27 23-49 58-41v29" id="aq"/><path fill="#333" d="M59-47c-2 24 18 29 38 22v24C64 9 27 4 27-40v-127H5v-23h24l9-43h21v43h35v23H59v120" id="ar"/><g id="a"><use transform="matrix(0.05,0,0,0.05,0,0)" xlink:href="#al"/><use transform="matrix(0.05,0,0,0.05,5,0)" xlink:href="#am"/><use transform="matrix(0.05,0,0,0.05,8.95,0)" xlink:href="#an"/><use transform="matrix(0.05,0,0,0.05,23.9,0)" xlink:href="#ao"/><use transform="matrix(0.05,0,0,0.05,33.9,0)" xlink:href="#ap"/><use transform="matrix(0.05,0,0,0.05,43.9,0)" xlink:href="#aq"/><use transform="matrix(0.05,0,0,0.05,49.85,0)" xlink:href="#ar"/></g><path fill="#333" d="M101-234c-31-9-42 10-38 44h38v23H63V0H32v-167H5v-23h27c-7-52 17-82 69-68v24" id="as"/><path fill="#333" d="M24 0v-261h32V0H24" id="at"/><path fill="#333" d="M100-194c63 0 86 42 84 106H49c0 40 14 67 53 68 26 1 43-12 49-29l28 8c-11 28-37 45-77 45C44 4 14-33 15-96c1-61 26-98 85-98zm52 81c6-60-76-77-97-28-3 7-6 17-6 28h103" id="au"/><path fill="#333" d="M141-36C126-15 110 5 73 4 37 3 15-17 15-53c-1-64 63-63 125-63 3-35-9-54-41-54-24 1-41 7-42 31l-33-3c5-37 33-52 76-52 45 0 72 20 72 64v82c-1 20 7 32 28 27v20c-31 9-61-2-59-35zM48-53c0 20 12 33 32 33 41-3 63-29 60-74-43 2-92-5-92 41" id="av"/><path fill="#333" d="M33 0v-38h34V0H33" id="aw"/><path fill="#333" d="M24-231v-30h32v30H24zM-9 49c24 4 33-6 33-30v-209h32V24c2 40-23 58-65 49V49" id="ax"/><path fill="#333" d="M135-143c-3-34-86-38-87 0 15 53 115 12 119 90S17 21 10-45l28-5c4 36 97 45 98 0-10-56-113-15-118-90-4-57 82-63 122-42 12 7 21 19 24 35" id="ay"/><path fill="#333" d="M117-194c89-4 53 116 60 194h-32v-121c0-31-8-49-39-48C34-167 62-67 57 0H25l-1-190h30c1 10-1 24 2 32 11-22 29-35 61-36" id="az"/><g id="b"><use transform="matrix(0.05,0,0,0.05,0,0)" xlink:href="#as"/><use transform="matrix(0.05,0,0,0.05,5,0)" xlink:href="#am"/><use transform="matrix(0.05,0,0,0.05,8.95,0)" xlink:href="#at"/><use transform="matrix(0.05,0,0,0.05,12.899999999999999,0)" xlink:href="#an"/><use transform="matrix(0.05,0,0,0.05,27.85,0)" xlink:href="#an"/><use transform="matrix(0.05,0,0,0.05,42.800000000000004,0)" xlink:href="#au"/><use transform="matrix(0.05,0,0,0.05,52.800000000000004,0)" xlink:href="#ar"/><use transform="matrix(0.05,0,0,0.05,57.800000000000004,0)" xlink:href="#av"/><use transform="matrix(0.05,0,0,0.05,67.80000000000001,0)" xlink:href="#aw"/><use transform="matrix(0.05,0,0,0.05,72.80000000000001,0)" xlink:href="#ax"/><use transform="matrix(0.05,0,0,0.05,76.75000000000001,0)" xlink:href="#ay"/><use transform="matrix(0.05,0,0,0.05,85.75000000000001,0)" xlink:href="#ap"/><use transform="matrix(0.05,0,0,0.05,95.75000000000001,0)" xlink:href="#az"/></g><path fill="#333" d="M96-169c-40 0-48 33-48 73s9 75 48 75c24 0 41-14 43-38l32 2c-6 37-31 61-74 61-59 0-76-41-82-99-10-93 101-131 147-64 4 7 5 14 7 22l-32 3c-4-21-16-35-41-35" id="aA"/><g id="c"><use transform="matrix(0.05,0,0,0.05,0,0)" xlink:href="#ao"/><use transform="matrix(0.05,0,0,0.05,10,0)" xlink:href="#aq"/><use transform="matrix(0.05,0,0,0.05,15.949999999999998,0)" xlink:href="#ap"/><use transform="matrix(0.05,0,0,0.05,25.950000000000003,0)" xlink:href="#aA"/><use transform="matrix(0.05,0,0,0.05,34.95,0)" xlink:href="#au"/><use transform="matrix(0.05,0,0,0.05,44.95,0)" xlink:href="#ay"/><use transform="matrix(0.05,0,0,0.05,53.95,0)" xlink:href="#ay"/></g><path fill="#333" d="M205 0l-28-72H64L36 0H1l101-248h38L239 0h-34zm-38-99l-47-123c-12 45-31 82-46 123h93" id="aB"/><g id="d"><use transform="matrix(0.05,0,0,0.05,0,0)" xlink:href="#aB"/><use transform="matrix(0.05,0,0,0.05,12,0)" xlink:href="#aq"/><use transform="matrix(0.05,0,0,0.05,17.95,0)" xlink:href="#au"/></g><path fill="#333" d="M106-169C34-169 62-67 57 0H25v-261h32l-1 103c12-21 28-36 61-36 89 0 53 116 60 194h-32v-121c2-32-8-49-39-48" id="aC"/><g id="e"><use transform="matrix(0.05,0,0,0.05,0,0)" xlink:href="#ar"/><use transform="matrix(0.05,0,0,0.05,5,0)" xlink:href="#aC"/><use transform="matrix(0.05,0,0,0.05,15,0)" xlink:href="#au"/><use transform="matrix(0.05,0,0,0.05,25,0)" xlink:href="#aq"/><use transform="matrix(0.05,0,0,0.05,30.950000000000003,0)" xlink:href="#au"/></g><g id="f"><use transform="matrix(0.05,0,0,0.05,0,0)" xlink:href="#an"/><use transform="matrix(0.05,0,0,0.05,14.950000000000001,0)" xlink:href="#ap"/><use transform="matrix(0.05,0,0,0.05,24.950000000000003,0)" xlink:href="#aq"/><use transform="matrix(0.05,0,0,0.05,30.900000000000002,0)" xlink:href="#au"/></g><g id="g"><use transform="matrix(0.05,0,0,0.05,0,0)" xlink:href="#au"/><use transform="matrix(0.05,0,0,0.05,10,0)" xlink:href="#az"/><use transform="matrix(0.05,0,0,0.05,20,0)" xlink:href="#ar"/><use transform="matrix(0.05,0,0,0.05,25,0)" xlink:href="#aq"/><use transform="matrix(0.05,0,0,0.05,30.950000000000003,0)" xlink:href="#am"/><use transform="matrix(0.05,0,0,0.05,34.9,0)" xlink:href="#au"/><use transform="matrix(0.05,0,0,0.05,44.9,0)" xlink:href="#ay"/></g><path fill="#333" d="M30-248c87 1 191-15 191 75 0 78-77 80-158 76V0H30v-248zm33 125c57 0 124 11 124-50 0-59-68-47-124-48v98" id="aD"/><path fill="#333" d="M84 4C-5 8 30-112 23-190h32v120c0 31 7 50 39 49 72-2 45-101 50-169h31l1 190h-30c-1-10 1-25-2-33-11 22-28 36-60 37" id="aE"/><g id="h"><use transform="matrix(0.05,0,0,0.05,0,0)" xlink:href="#aD"/><use transform="matrix(0.05,0,0,0.05,12,0)" xlink:href="#aE"/><use transform="matrix(0.05,0,0,0.05,22,0)" xlink:href="#ar"/></g><path fill="#333" d="M141 0L90-78 38 0H4l68-98-65-92h35l48 74 47-74h35l-64 92 68 98h-35" id="aF"/><g id="i"><use transform="matrix(0.05,0,0,0.05,0,0)" xlink:href="#az"/><use transform="matrix(0.05,0,0,0.05,10,0)" xlink:href="#au"/><use transform="matrix(0.05,0,0,0.05,20,0)" xlink:href="#aF"/><use transform="matrix(0.05,0,0,0.05,29,0)" xlink:href="#ar"/></g><path fill="#333" d="M108 0H70L1-190h34L89-25l56-165h34" id="aG"/><g id="j"><use transform="matrix(0.05,0,0,0.05,0,0)" xlink:href="#an"/><use transform="matrix(0.05,0,0,0.05,14.950000000000001,0)" xlink:href="#ap"/><use transform="matrix(0.05,0,0,0.05,24.950000000000003,0)" xlink:href="#aG"/><use transform="matrix(0.05,0,0,0.05,33.95,0)" xlink:href="#am"/><use transform="matrix(0.05,0,0,0.05,37.900000000000006,0)" xlink:href="#au"/></g><g id="k"><use transform="matrix(0.05,0,0,0.05,0,0)" xlink:href="#ap"/><use transform="matrix(0.05,0,0,0.05,10,0)" xlink:href="#az"/><use transform="matrix(0.05,0,0,0.05,20,0)" xlink:href="#ar"/><use transform="matrix(0.05,0,0,0.05,25,0)" xlink:href="#ap"/></g><path fill="#333" d="M194 0L95-120 63-95V0H30v-248h33v124l119-124h40L117-140 236 0h-42" id="aH"/><path fill="#333" d="M143 0L79-87 56-68V0H24v-261h32v163l83-92h37l-77 82L181 0h-38" id="aI"/><g id="l"><use transform="matrix(0.05,0,0,0.05,0,0)" xlink:href="#aH"/><use transform="matrix(0.05,0,0,0.05,12,0)" xlink:href="#av"/><use transform="matrix(0.05,0,0,0.05,22,0)" xlink:href="#as"/><use transform="matrix(0.05,0,0,0.05,27,0)" xlink:href="#aI"/><use transform="matrix(0.05,0,0,0.05,36,0)" xlink:href="#av"/></g><path fill="#333" d="M47-170H22l-4-78h33" id="aJ"/><path fill="#333" d="M-5 72V49h209v23H-5" id="aK"/><g id="m"><use transform="matrix(0.05,0,0,0.05,0,0)" xlink:href="#aJ"/><use transform="matrix(0.05,0,0,0.05,3.4000000000000004,0)" xlink:href="#ao"/><use transform="matrix(0.05,0,0,0.05,13.4,0)" xlink:href="#aq"/><use transform="matrix(0.05,0,0,0.05,19.35,0)" xlink:href="#ap"/><use transform="matrix(0.05,0,0,0.05,29.35,0)" xlink:href="#aA"/><use transform="matrix(0.05,0,0,0.05,38.35,0)" xlink:href="#au"/><use transform="matrix(0.05,0,0,0.05,48.35,0)" xlink:href="#ay"/><use transform="matrix(0.05,0,0,0.05,57.35,0)" xlink:href="#ay"/><use transform="matrix(0.05,0,0,0.05,66.35,0)" xlink:href="#aK"/><use transform="matrix(0.05,0,0,0.05,76.35,0)" xlink:href="#an"/><use transform="matrix(0.05,0,0,0.05,91.3,0)" xlink:href="#ap"/><use transform="matrix(0.05,0,0,0.05,101.3,0)" xlink:href="#aG"/><use transform="matrix(0.05,0,0,0.05,110.30000000000001,0)" xlink:href="#am"/><use transform="matrix(0.05,0,0,0.05,114.25,0)" xlink:href="#au"/><use transform="matrix(0.05,0,0,0.05,124.25,0)" xlink:href="#aJ"/></g><g id="n"><use transform="matrix(0.05,0,0,0.05,0,0)" xlink:href="#ar"/><use transform="matrix(0.05,0,0,0.05,5,0)" xlink:href="#ap"/><use transform="matrix(0.05,0,0,0.05,15,0)" xlink:href="#ao"/><use transform="matrix(0.05,0,0,0.05,25,0)" xlink:href="#am"/><use transform="matrix(0.05,0,0,0.05,28.950000000000003,0)" xlink:href="#aA"/></g><path fill="#333" d="M137-103V0h-34v-103L8-248h37l75 118 75-118h37" id="aL"/><g id="o"><use transform="matrix(0.05,0,0,0.05,0,0)" xlink:href="#aL"/><use transform="matrix(0.05,0,0,0.05,10.35,0)" xlink:href="#au"/><use transform="matrix(0.05,0,0,0.05,20.35,0)" xlink:href="#ay"/></g><path fill="#333" d="M30 0v-248h33v221h125V0H30" id="aM"/><path fill="#333" d="M85-194c31 0 48 13 60 33l-1-100h32l1 261h-30c-2-10 0-23-3-31C134-8 116 4 85 4 32 4 16-35 15-94c0-66 23-100 70-100zm9 24c-40 0-46 34-46 75 0 40 6 74 45 74 42 0 51-32 51-76 0-42-9-74-50-73" id="aN"/><g id="p"><use transform="matrix(0.05,0,0,0.05,0,0)" xlink:href="#aM"/><use transform="matrix(0.05,0,0,0.05,10,0)" xlink:href="#ap"/><use transform="matrix(0.05,0,0,0.05,20,0)" xlink:href="#av"/><use transform="matrix(0.05,0,0,0.05,30,0)" xlink:href="#aN"/></g><g id="q"><use transform="matrix(0.05,0,0,0.05,0,0)" xlink:href="#an"/><use transform="matrix(0.05,0,0,0.05,14.950000000000001,0)" xlink:href="#au"/><use transform="matrix(0.05,0,0,0.05,24.950000000000003,0)" xlink:href="#ar"/><use transform="matrix(0.05,0,0,0.05,29.950000000000003,0)" xlink:href="#av"/><use transform="matrix(0.05,0,0,0.05,39.95,0)" xlink:href="#aN"/><use transform="matrix(0.05,0,0,0.05,49.95,0)" xlink:href="#av"/><use transform="matrix(0.05,0,0,0.05,59.95,0)" xlink:href="#ar"/><use transform="matrix(0.05,0,0,0.05,64.95,0)" xlink:href="#av"/></g><g id="r"><use transform="matrix(0.05,0,0,0.05,0,0)" xlink:href="#ao"/><use transform="matrix(0.05,0,0,0.05,10,0)" xlink:href="#aq"/><use transform="matrix(0.05,0,0,0.05,15.949999999999998,0)" xlink:href="#ap"/><use transform="matrix(0.05,0,0,0.05,25.950000000000003,0)" xlink:href="#aA"/><use transform="matrix(0.05,0,0,0.05,34.95,0)" xlink:href="#au"/><use transform="matrix(0.05,0,0,0.05,44.95,0)" xlink:href="#ay"/><use transform="matrix(0.05,0,0,0.05,53.95,0)" xlink:href="#ay"/><use transform="matrix(0.05,0,0,0.05,62.95,0)" xlink:href="#aK"/><use transform="matrix(0.05,0,0,0.05,72.95,0)" xlink:href="#an"/><use transform="matrix(0.05,0,0,0.05,87.9,0)" xlink:href="#ap"/><use transform="matrix(0.05,0,0,0.05,97.9,0)" xlink:href="#aG"/><use transform="matrix(0.05,0,0,0.05,106.9,0)" xlink:href="#am"/><use transform="matrix(0.05,0,0,0.05,110.85000000000001,0)" xlink:href="#au"/></g><path d="M141-36C126-15 110 5 73 4 37 3 15-17 15-53c-1-64 63-63 125-63 3-35-9-54-41-54-24 1-41 7-42 31l-33-3c5-37 33-52 76-52 45 0 72 20 72 64v82c-1 20 7 32 28 27v20c-31 9-61-2-59-35zM48-53c0 20 12 33 32 33 41-3 63-29 60-74-43 2-92-5-92 41" id="aO"/><path d="M114-163C36-179 61-72 57 0H25l-1-190h30c1 12-1 29 2 39 6-27 23-49 58-41v29" id="aP"/><path d="M100-194c63 0 86 42 84 106H49c0 40 14 67 53 68 26 1 43-12 49-29l28 8c-11 28-37 45-77 45C44 4 14-33 15-96c1-61 26-98 85-98zm52 81c6-60-76-77-97-28-3 7-6 17-6 28h103" id="aQ"/><g id="s"><use transform="matrix(0.04938271604938272,0,0,0.04938271604938272,0,0)" xlink:href="#aO"/><use transform="matrix(0.04938271604938272,0,0,0.04938271604938272,9.876543209876544,0)" xlink:href="#aP"/><use transform="matrix(0.04938271604938272,0,0,0.04938271604938272,15.753086419753087,0)" xlink:href="#aQ"/></g><path d="M59-47c-2 24 18 29 38 22v24C64 9 27 4 27-40v-127H5v-23h24l9-43h21v43h35v23H59v120" id="aR"/><path d="M106-169C34-169 62-67 57 0H25v-261h32l-1 103c12-21 28-36 61-36 89 0 53 116 60 194h-32v-121c2-32-8-49-39-48" id="aS"/><g id="t"><use transform="matrix(0.04938271604938272,0,0,0.04938271604938272,0,0)" xlink:href="#aR"/><use transform="matrix(0.04938271604938272,0,0,0.04938271604938272,4.938271604938272,0)" xlink:href="#aS"/><use transform="matrix(0.04938271604938272,0,0,0.04938271604938272,14.814814814814817,0)" xlink:href="#aQ"/><use transform="matrix(0.04938271604938272,0,0,0.04938271604938272,24.69135802469136,0)" xlink:href="#aP"/><use transform="matrix(0.04938271604938272,0,0,0.04938271604938272,30.567901234567906,0)" xlink:href="#aQ"/></g><path d="M117-194c89-4 53 116 60 194h-32v-121c0-31-8-49-39-48C34-167 62-67 57 0H25l-1-190h30c1 10-1 24 2 32 11-22 29-35 61-36" id="aT"/><path d="M179-190L93 31C79 59 56 82 12 73V49c39 6 53-20 64-50L1-190h34L92-34l54-156h33" id="aU"/><g id="u"><use transform="matrix(0.04938271604938272,0,0,0.04938271604938272,0,0)" xlink:href="#aO"/><use transform="matrix(0.04938271604938272,0,0,0.04938271604938272,9.876543209876544,0)" xlink:href="#aT"/><use transform="matrix(0.04938271604938272,0,0,0.04938271604938272,19.75308641975309,0)" xlink:href="#aU"/></g><path d="M210-169c-67 3-38 105-44 169h-31v-121c0-29-5-50-35-48C34-165 62-65 56 0H25l-1-190h30c1 10-1 24 2 32 10-44 99-50 107 0 11-21 27-35 58-36 85-2 47 119 55 194h-31v-121c0-29-5-49-35-48" id="aV"/><path d="M100-194c62-1 85 37 85 99 1 63-27 99-86 99S16-35 15-95c0-66 28-99 85-99zM99-20c44 1 53-31 53-75 0-43-8-75-51-75s-53 32-53 75 10 74 51 75" id="aW"/><path d="M108 0H70L1-190h34L89-25l56-165h34" id="aX"/><path d="M24-231v-30h32v30H24zM24 0v-190h32V0H24" id="aY"/><path d="M135-143c-3-34-86-38-87 0 15 53 115 12 119 90S17 21 10-45l28-5c4 36 97 45 98 0-10-56-113-15-118-90-4-57 82-63 122-42 12 7 21 19 24 35" id="aZ"/><g id="v"><use transform="matrix(0.04938271604938272,0,0,0.04938271604938272,0,0)" xlink:href="#aV"/><use transform="matrix(0.04938271604938272,0,0,0.04938271604938272,14.765432098765434,0)" xlink:href="#aW"/><use transform="matrix(0.04938271604938272,0,0,0.04938271604938272,24.641975308641978,0)" xlink:href="#aX"/><use transform="matrix(0.04938271604938272,0,0,0.04938271604938272,33.53086419753087,0)" xlink:href="#aY"/><use transform="matrix(0.04938271604938272,0,0,0.04938271604938272,37.4320987654321,0)" xlink:href="#aQ"/><use transform="matrix(0.04938271604938272,0,0,0.04938271604938272,47.308641975308646,0)" xlink:href="#aZ"/></g><g id="w"><use transform="matrix(0.04938271604938272,0,0,0.04938271604938272,0,0)" xlink:href="#aW"/><use transform="matrix(0.04938271604938272,0,0,0.04938271604938272,9.876543209876544,0)" xlink:href="#aT"/></g><g id="x"><use transform="matrix(0.04938271604938272,0,0,0.04938271604938272,0,0)" xlink:href="#aR"/><use transform="matrix(0.04938271604938272,0,0,0.04938271604938272,4.938271604938272,0)" xlink:href="#aS"/><use transform="matrix(0.04938271604938272,0,0,0.04938271604938272,14.814814814814817,0)" xlink:href="#aQ"/></g><path d="M145-31C134-9 116 4 85 4 32 4 16-35 15-94c0-59 17-99 70-100 32-1 48 14 60 33 0-11-1-24 2-32h30l-1 268h-32zM93-21c41 0 51-33 51-76s-8-73-50-73c-40 0-46 35-46 75s5 74 45 74" id="ba"/><path d="M84 4C-5 8 30-112 23-190h32v120c0 31 7 50 39 49 72-2 45-101 50-169h31l1 190h-30c-1-10 1-25-2-33-11 22-28 36-60 37" id="bb"/><path d="M103-251c84 0 111 97 45 133-19 10-37 24-39 52H78c0-63 77-55 77-114 0-30-21-42-52-43-32 0-53 17-56 46l-32-2c7-45 34-72 88-72zM77 0v-35h34V0H77" id="bc"/><g id="y"><use transform="matrix(0.04938271604938272,0,0,0.04938271604938272,0,0)" xlink:href="#ba"/><use transform="matrix(0.04938271604938272,0,0,0.04938271604938272,9.876543209876544,0)" xlink:href="#bb"/><use transform="matrix(0.04938271604938272,0,0,0.04938271604938272,19.75308641975309,0)" xlink:href="#aQ"/><use transform="matrix(0.04938271604938272,0,0,0.04938271604938272,29.629629629629633,0)" xlink:href="#bb"/><use transform="matrix(0.04938271604938272,0,0,0.04938271604938272,39.50617283950618,0)" xlink:href="#aQ"/><use transform="matrix(0.04938271604938272,0,0,0.04938271604938272,49.38271604938272,0)" xlink:href="#bc"/></g><path fill="#333" d="M206 0h-36l-40-164L89 0H53L-1-190h32L70-26l43-164h34l41 164 42-164h31" id="bd"/><g id="z"><use transform="matrix(0.05,0,0,0.05,0,0)" xlink:href="#aq"/><use transform="matrix(0.05,0,0,0.05,5.95,0)" xlink:href="#au"/><use transform="matrix(0.05,0,0,0.05,15.949999999999998,0)" xlink:href="#aG"/><use transform="matrix(0.05,0,0,0.05,24.95,0)" xlink:href="#am"/><use transform="matrix(0.05,0,0,0.05,28.899999999999995,0)" xlink:href="#au"/><use transform="matrix(0.05,0,0,0.05,38.9,0)" xlink:href="#bd"/></g><g id="A"><use transform="matrix(0.05,0,0,0.05,0,0)" xlink:href="#an"/><use transform="matrix(0.05,0,0,0.05,14.950000000000001,0)" xlink:href="#av"/><use transform="matrix(0.05,0,0,0.05,24.950000000000003,0)" xlink:href="#aq"/><use transform="matrix(0.05,0,0,0.05,30.900000000000002,0)" xlink:href="#aI"/><use transform="matrix(0.05,0,0,0.05,39.900000000000006,0)" xlink:href="#aN"/><use transform="matrix(0.05,0,0,0.05,49.900000000000006,0)" xlink:href="#ap"/><use transform="matrix(0.05,0,0,0.05,59.900000000000006,0)" xlink:href="#bd"/><use transform="matrix(0.05,0,0,0.05,72.85000000000001,0)" xlink:href="#az"/></g><g id="B"><use transform="matrix(0.05,0,0,0.05,0,0)" xlink:href="#av"/><use transform="matrix(0.05,0,0,0.05,10,0)" xlink:href="#az"/><use transform="matrix(0.05,0,0,0.05,20,0)" xlink:href="#aN"/></g><g id="C"><use transform="matrix(0.05,0,0,0.05,0,0)" xlink:href="#aA"/><use transform="matrix(0.05,0,0,0.05,9,0)" xlink:href="#ap"/><use transform="matrix(0.05,0,0,0.05,19,0)" xlink:href="#az"/><use transform="matrix(0.05,0,0,0.05,29,0)" xlink:href="#aG"/><use transform="matrix(0.05,0,0,0.05,38,0)" xlink:href="#au"/><use transform="matrix(0.05,0,0,0.05,48,0)" xlink:href="#aq"/><use transform="matrix(0.05,0,0,0.05,53.95,0)" xlink:href="#ar"/></g><g id="D"><use transform="matrix(0.05,0,0,0.05,0,0)" xlink:href="#ar"/><use transform="matrix(0.05,0,0,0.05,5,0)" xlink:href="#ap"/></g><path fill="#333" d="M197 0v-115H63V0H30v-248h33v105h134v-105h34V0h-34" id="be"/><path fill="#333" d="M127-220V0H93v-220H8v-28h204v28h-85" id="bf"/><path fill="#333" d="M240 0l2-218c-23 76-54 145-80 218h-23L58-218 59 0H30v-248h44l77 211c21-75 51-140 76-211h43V0h-30" id="bg"/><g id="E"><use transform="matrix(0.05,0,0,0.05,0,0)" xlink:href="#be"/><use transform="matrix(0.05,0,0,0.05,12.950000000000001,0)" xlink:href="#bf"/><use transform="matrix(0.05,0,0,0.05,23.900000000000002,0)" xlink:href="#bg"/><use transform="matrix(0.05,0,0,0.05,38.85,0)" xlink:href="#aM"/></g><g id="F"><use transform="matrix(0.05,0,0,0.05,0,0)" xlink:href="#aN"/><use transform="matrix(0.05,0,0,0.05,10,0)" xlink:href="#ap"/><use transform="matrix(0.05,0,0,0.05,20,0)" xlink:href="#az"/><use transform="matrix(0.05,0,0,0.05,30,0)" xlink:href="#au"/></g><path fill="#333" d="M190 0L58-211 59 0H30v-248h39L202-35l-2-213h31V0h-41" id="bh"/><g id="G"><use transform="matrix(0.05,0,0,0.05,0,0)" xlink:href="#bh"/><use transform="matrix(0.05,0,0,0.05,12.950000000000001,0)" xlink:href="#ap"/></g><path fill="#333" d="M160-131c35 5 61 23 61 61C221 17 115-2 30 0v-248c76 3 177-17 177 60 0 33-19 50-47 57zm-97-11c50-1 110 9 110-42 0-47-63-36-110-37v79zm0 115c55-2 124 14 124-45 0-56-70-42-124-44v89" id="bi"/><g id="H"><use transform="matrix(0.05,0,0,0.05,0,0)" xlink:href="#bi"/><use transform="matrix(0.05,0,0,0.05,12,0)" xlink:href="#ap"/><use transform="matrix(0.05,0,0,0.05,22,0)" xlink:href="#az"/><use transform="matrix(0.05,0,0,0.05,32,0)" xlink:href="#aN"/><use transform="matrix(0.05,0,0,0.05,42,0)" xlink:href="#bg"/><use transform="matrix(0.05,0,0,0.05,56.95,0)" xlink:href="#ap"/><use transform="matrix(0.05,0,0,0.05,66.95,0)" xlink:href="#aG"/><use transform="matrix(0.05,0,0,0.05,75.95,0)" xlink:href="#am"/><use transform="matrix(0.05,0,0,0.05,79.9,0)" xlink:href="#au"/><use transform="matrix(0.05,0,0,0.05,89.9,0)" xlink:href="#ay"/></g><path fill="#333" d="M87 75C49 33 22-17 22-94c0-76 28-126 65-167h31c-38 41-64 92-64 168S80 34 118 75H87" id="bj"/><path fill="#333" d="M30-248c118-7 216 8 213 122C240-48 200 0 122 0H30v-248zM63-27c89 8 146-16 146-99s-60-101-146-95v194" id="bk"/><path fill="#333" d="M179-190L93 31C79 59 56 82 12 73V49c39 6 53-20 64-50L1-190h34L92-34l54-156h33" id="bl"/><path fill="#333" d="M33-261c38 41 65 92 65 168S71 34 33 75H2C39 34 66-17 66-93S39-220 2-261h31" id="bm"/><g id="I"><use transform="matrix(0.05,0,0,0.05,0,0)" xlink:href="#bj"/><use transform="matrix(0.05,0,0,0.05,5.95,0)" xlink:href="#bk"/><use transform="matrix(0.05,0,0,0.05,18.900000000000002,0)" xlink:href="#bl"/><use transform="matrix(0.05,0,0,0.05,27.900000000000002,0)" xlink:href="#az"/><use transform="matrix(0.05,0,0,0.05,37.900000000000006,0)" xlink:href="#av"/><use transform="matrix(0.05,0,0,0.05,47.900000000000006,0)" xlink:href="#an"/><use transform="matrix(0.05,0,0,0.05,62.85,0)" xlink:href="#ap"/><use transform="matrix(0.05,0,0,0.05,72.85000000000001,0)" xlink:href="#bk"/><use transform="matrix(0.05,0,0,0.05,85.80000000000001,0)" xlink:href="#bi"/><use transform="matrix(0.05,0,0,0.05,97.80000000000001,0)" xlink:href="#bm"/></g><g id="J"><use transform="matrix(0.05,0,0,0.05,0,0)" xlink:href="#aq"/><use transform="matrix(0.05,0,0,0.05,5.95,0)" xlink:href="#au"/><use transform="matrix(0.05,0,0,0.05,15.949999999999998,0)" xlink:href="#aG"/><use transform="matrix(0.05,0,0,0.05,24.95,0)" xlink:href="#am"/><use transform="matrix(0.05,0,0,0.05,28.899999999999995,0)" xlink:href="#au"/><use transform="matrix(0.05,0,0,0.05,38.9,0)" xlink:href="#bd"/><use transform="matrix(0.05,0,0,0.05,51.85,0)" xlink:href="#ay"/></g><g id="K"><use transform="matrix(0.05,0,0,0.05,0,0)" xlink:href="#bj"/><use transform="matrix(0.05,0,0,0.05,5.95,0)" xlink:href="#an"/><use transform="matrix(0.05,0,0,0.05,20.900000000000002,0)" xlink:href="#av"/><use transform="matrix(0.05,0,0,0.05,30.900000000000002,0)" xlink:href="#aq"/><use transform="matrix(0.05,0,0,0.05,36.85,0)" xlink:href="#aI"/><use transform="matrix(0.05,0,0,0.05,45.85,0)" xlink:href="#aN"/><use transform="matrix(0.05,0,0,0.05,55.85,0)" xlink:href="#ap"/><use transform="matrix(0.05,0,0,0.05,65.85,0)" xlink:href="#bd"/><use transform="matrix(0.05,0,0,0.05,78.8,0)" xlink:href="#az"/><use transform="matrix(0.05,0,0,0.05,88.8,0)" xlink:href="#bm"/></g><g id="L"><use transform="matrix(0.05,0,0,0.05,0,0)" xlink:href="#aB"/><use transform="matrix(0.05,0,0,0.05,12,0)" xlink:href="#aN"/><use transform="matrix(0.05,0,0,0.05,22,0)" xlink:href="#aN"/></g><g id="M"><use transform="matrix(0.05,0,0,0.05,0,0)" xlink:href="#av"/><use transform="matrix(0.05,0,0,0.05,10,0)" xlink:href="#at"/><use transform="matrix(0.05,0,0,0.05,13.949999999999998,0)" xlink:href="#at"/></g><g id="N"><use transform="matrix(0.05,0,0,0.05,0,0)" xlink:href="#aN"/><use transform="matrix(0.05,0,0,0.05,10,0)" xlink:href="#av"/><use transform="matrix(0.05,0,0,0.05,20,0)" xlink:href="#ar"/><use transform="matrix(0.05,0,0,0.05,25,0)" xlink:href="#av"/></g><g id="O"><use transform="matrix(0.05,0,0,0.05,0,0)" xlink:href="#ar"/><use transform="matrix(0.05,0,0,0.05,5,0)" xlink:href="#ap"/></g><path fill="#333" d="M115-194c53 0 69 39 70 98 0 66-23 100-70 100C84 3 66-7 56-30L54 0H23l1-261h32v101c10-23 28-34 59-34zm-8 174c40 0 45-34 45-75 0-40-5-75-45-74-42 0-51 32-51 76 0 43 10 73 51 73" id="bn"/><g id="P"><use transform="matrix(0.05,0,0,0.05,0,0)" xlink:href="#aN"/><use transform="matrix(0.05,0,0,0.05,10,0)" xlink:href="#bl"/><use transform="matrix(0.05,0,0,0.05,19,0)" xlink:href="#az"/><use transform="matrix(0.05,0,0,0.05,29,0)" xlink:href="#av"/><use transform="matrix(0.05,0,0,0.05,39,0)" xlink:href="#an"/><use transform="matrix(0.05,0,0,0.05,53.95,0)" xlink:href="#ap"/><use transform="matrix(0.05,0,0,0.05,63.95,0)" xlink:href="#aN"/><use transform="matrix(0.05,0,0,0.05,73.95,0)" xlink:href="#bn"/></g><g id="Q"><use transform="matrix(0.05,0,0,0.05,0,0)" xlink:href="#al"/><use transform="matrix(0.05,0,0,0.05,5,0)" xlink:href="#as"/><use transform="matrix(0.05,0,0,0.05,10,0)" xlink:href="#am"/><use transform="matrix(0.05,0,0,0.05,13.949999999999998,0)" xlink:href="#at"/><use transform="matrix(0.05,0,0,0.05,17.9,0)" xlink:href="#an"/><use transform="matrix(0.05,0,0,0.05,32.85,0)" xlink:href="#ay"/></g><path fill="#333" d="M143 4C61 4 22-44 18-125c-5-107 100-154 193-111 17 8 29 25 37 43l-32 9c-13-25-37-40-76-40-61 0-88 39-88 99 0 61 29 100 91 101 35 0 62-11 79-27v-45h-74v-28h105v86C228-13 192 4 143 4" id="bo"/><g id="R"><use transform="matrix(0.05,0,0,0.05,0,0)" xlink:href="#bo"/><use transform="matrix(0.05,0,0,0.05,14,0)" xlink:href="#au"/><use transform="matrix(0.05,0,0,0.05,24,0)" xlink:href="#ar"/></g><use transform="matrix(0.05,0,0,0.05,0,0)" xlink:href="#av" id="S"/><g id="T"><use transform="matrix(0.05,0,0,0.05,0,0)" xlink:href="#at"/><use transform="matrix(0.05,0,0,0.05,3.95,0)" xlink:href="#am"/><use transform="matrix(0.05,0,0,0.05,7.9,0)" xlink:href="#ay"/><use transform="matrix(0.05,0,0,0.05,16.9,0)" xlink:href="#ar"/></g><g id="U"><use transform="matrix(0.05,0,0,0.05,0,0)" xlink:href="#ap"/><use transform="matrix(0.05,0,0,0.05,10,0)" xlink:href="#as"/></g><g id="V"><use transform="matrix(0.05,0,0,0.05,0,0)" xlink:href="#av"/><use transform="matrix(0.05,0,0,0.05,10,0)" xlink:href="#at"/><use transform="matrix(0.05,0,0,0.05,13.949999999999998,0)" xlink:href="#at"/></g><g id="W"><use transform="matrix(0.05,0,0,0.05,0,0)" xlink:href="#as"/><use transform="matrix(0.05,0,0,0.05,5,0)" xlink:href="#am"/><use transform="matrix(0.05,0,0,0.05,8.95,0)" xlink:href="#at"/><use transform="matrix(0.05,0,0,0.05,12.899999999999999,0)" xlink:href="#an"/><use transform="matrix(0.05,0,0,0.05,27.85,0)" xlink:href="#ay"/></g><path fill="#333" d="M195 0l-88-114-31 24V0H24v-248h52v113l112-113h60L142-143 257 0h-62" id="bp"/><path fill="#333" d="M199 0l-22-63H83L61 0H9l90-248h61L250 0h-51zm-33-102l-36-108c-10 38-24 72-36 108h72" id="bq"/><path fill="#333" d="M76-208v77h127v40H76V0H24v-248h183v40H76" id="br"/><g id="X"><use transform="matrix(0.05,0,0,0.05,0,0)" xlink:href="#bp"/><use transform="matrix(0.05,0,0,0.05,12.950000000000001,0)" xlink:href="#bq"/><use transform="matrix(0.05,0,0,0.05,25.900000000000002,0)" xlink:href="#br"/><use transform="matrix(0.05,0,0,0.05,36.85,0)" xlink:href="#bp"/><use transform="matrix(0.05,0,0,0.05,49.800000000000004,0)" xlink:href="#bq"/></g><path fill="#333" d="M169-182c-1-43-94-46-97-3 18 66 151 10 154 114 3 95-165 93-204 36-6-8-10-19-12-30l50-8c3 46 112 56 116 5-17-69-150-10-154-114-4-87 153-88 188-35 5 8 8 18 10 28" id="bs"/><path fill="#333" d="M24 0v-248h195v40H76v63h132v40H76v65h150V0H24" id="bt"/><path fill="#333" d="M240-174c0 40-23 61-54 70L253 0h-59l-57-94H76V0H24v-248c93 4 217-23 216 74zM76-134c48-2 112 12 112-38 0-48-66-32-112-35v73" id="bu"/><path fill="#333" d="M147 0H94L2-248h55l64 206c17-72 42-137 63-206h54" id="bv"/><path fill="#333" d="M24 0v-248h52V0H24" id="bw"/><path fill="#333" d="M67-125c0 53 21 87 73 88 37 1 54-22 65-47l45 17C233-25 199 4 140 4 58 4 20-42 15-125 8-235 124-281 211-232c18 10 29 29 36 50l-46 12c-8-25-30-41-62-41-52 0-71 34-72 86" id="bx"/><g id="Y"><use transform="matrix(0.05,0,0,0.05,0,0)" xlink:href="#bs"/><use transform="matrix(0.05,0,0,0.05,12,0)" xlink:href="#bt"/><use transform="matrix(0.05,0,0,0.05,24,0)" xlink:href="#bu"/><use transform="matrix(0.05,0,0,0.05,36.6,0)" xlink:href="#bv"/><use transform="matrix(0.05,0,0,0.05,48.6,0)" xlink:href="#bw"/><use transform="matrix(0.05,0,0,0.05,53.6,0)" xlink:href="#bx"/><use transform="matrix(0.05,0,0,0.05,66.55,0)" xlink:href="#bt"/></g><g id="Z"><use transform="matrix(0.05,0,0,0.05,0,0)" xlink:href="#aC"/><use transform="matrix(0.05,0,0,0.05,10,0)" xlink:href="#av"/><use transform="matrix(0.05,0,0,0.05,20,0)" xlink:href="#ay"/></g><g id="aa"><use transform="matrix(0.05,0,0,0.05,0,0)" xlink:href="#ar"/><use transform="matrix(0.05,0,0,0.05,5,0)" xlink:href="#aC"/><use transform="matrix(0.05,0,0,0.05,15,0)" xlink:href="#au"/></g><g id="ab"><use transform="matrix(0.05,0,0,0.05,0,0)" xlink:href="#ap"/><use transform="matrix(0.05,0,0,0.05,10,0)" xlink:href="#an"/><use transform="matrix(0.05,0,0,0.05,24.950000000000003,0)" xlink:href="#aN"/><use transform="matrix(0.05,0,0,0.05,34.95,0)" xlink:href="#bn"/></g><g id="ac"><use transform="matrix(0.05,0,0,0.05,0,0)" xlink:href="#aN"/><use transform="matrix(0.05,0,0,0.05,10,0)" xlink:href="#av"/><use transform="matrix(0.05,0,0,0.05,20,0)" xlink:href="#ar"/><use transform="matrix(0.05,0,0,0.05,25,0)" xlink:href="#av"/></g><g id="ad"><use transform="matrix(0.05,0,0,0.05,0,0)" xlink:href="#bn"/><use transform="matrix(0.05,0,0,0.05,10,0)" xlink:href="#au"/><use transform="matrix(0.05,0,0,0.05,20,0)" xlink:href="#au"/><use transform="matrix(0.05,0,0,0.05,30,0)" xlink:href="#az"/></g><path fill="#333" d="M103-251c84 0 111 97 45 133-19 10-37 24-39 52H78c0-63 77-55 77-114 0-30-21-42-52-43-32 0-53 17-56 46l-32-2c7-45 34-72 88-72zM77 0v-35h34V0H77" id="by"/><g id="ae"><use transform="matrix(0.05,0,0,0.05,0,0)" xlink:href="#ao"/><use transform="matrix(0.05,0,0,0.05,10,0)" xlink:href="#aq"/><use transform="matrix(0.05,0,0,0.05,15.949999999999998,0)" xlink:href="#au"/><use transform="matrix(0.05,0,0,0.05,25.950000000000003,0)" xlink:href="#at"/><use transform="matrix(0.05,0,0,0.05,29.899999999999995,0)" xlink:href="#ap"/><use transform="matrix(0.05,0,0,0.05,39.9,0)" xlink:href="#av"/><use transform="matrix(0.05,0,0,0.05,49.9,0)" xlink:href="#aN"/><use transform="matrix(0.05,0,0,0.05,59.900000000000006,0)" xlink:href="#au"/><use transform="matrix(0.05,0,0,0.05,69.9,0)" xlink:href="#aN"/><use transform="matrix(0.05,0,0,0.05,79.9,0)" xlink:href="#by"/></g><path fill="#333" d="M140-251c81 0 123 46 123 126C263-46 219 4 140 4 59 4 17-45 17-125s42-126 123-126zm0 227c63 0 89-41 89-101s-29-99-89-99c-61 0-89 39-89 99S79-25 140-24" id="bz"/><g id="af"><use transform="matrix(0.05,0,0,0.05,0,0)" xlink:href="#bz"/><use transform="matrix(0.05,0,0,0.05,14,0)" xlink:href="#bg"/><use transform="matrix(0.05,0,0,0.05,28.950000000000003,0)" xlink:href="#bk"/><use transform="matrix(0.05,0,0,0.05,41.900000000000006,0)" xlink:href="#bi"/></g><g id="ag"><use transform="matrix(0.05,0,0,0.05,0,0)" xlink:href="#an"/><use transform="matrix(0.05,0,0,0.05,14.950000000000001,0)" xlink:href="#au"/><use transform="matrix(0.05,0,0,0.05,24.950000000000003,0)" xlink:href="#ar"/><use transform="matrix(0.05,0,0,0.05,29.950000000000003,0)" xlink:href="#av"/><use transform="matrix(0.05,0,0,0.05,39.95,0)" xlink:href="#aN"/><use transform="matrix(0.05,0,0,0.05,49.95,0)" xlink:href="#av"/><use transform="matrix(0.05,0,0,0.05,59.95,0)" xlink:href="#ar"/><use transform="matrix(0.05,0,0,0.05,64.95,0)" xlink:href="#av"/></g><g id="ah"><use transform="matrix(0.05,0,0,0.05,0,0)" xlink:href="#av"/><use transform="matrix(0.05,0,0,0.05,10,0)" xlink:href="#az"/><use transform="matrix(0.05,0,0,0.05,20,0)" xlink:href="#aN"/></g><g id="ai"><use transform="matrix(0.05,0,0,0.05,0,0)" xlink:href="#ao"/><use transform="matrix(0.05,0,0,0.05,10,0)" xlink:href="#au"/><use transform="matrix(0.05,0,0,0.05,20,0)" xlink:href="#aq"/><use transform="matrix(0.05,0,0,0.05,25.950000000000003,0)" xlink:href="#ay"/><use transform="matrix(0.05,0,0,0.05,34.95,0)" xlink:href="#am"/><use transform="matrix(0.05,0,0,0.05,38.900000000000006,0)" xlink:href="#ay"/><use transform="matrix(0.05,0,0,0.05,47.900000000000006,0)" xlink:href="#ar"/></g><g id="aj"><use transform="matrix(0.05,0,0,0.05,0,0)" xlink:href="#aq"/><use transform="matrix(0.05,0,0,0.05,5.95,0)" xlink:href="#au"/><use transform="matrix(0.05,0,0,0.05,15.949999999999998,0)" xlink:href="#aN"/><use transform="matrix(0.05,0,0,0.05,25.950000000000003,0)" xlink:href="#am"/><use transform="matrix(0.05,0,0,0.05,29.899999999999995,0)" xlink:href="#ay"/></g><g id="ak"><use transform="matrix(0.05,0,0,0.05,0,0)" xlink:href="#aq"/><use transform="matrix(0.05,0,0,0.05,5.95,0)" xlink:href="#au"/><use transform="matrix(0.05,0,0,0.05,15.949999999999998,0)" xlink:href="#aN"/><use transform="matrix(0.05,0,0,0.05,25.950000000000003,0)" xlink:href="#am"/><use transform="matrix(0.05,0,0,0.05,29.899999999999995,0)" xlink:href="#ay"/></g></defs></g></svg>